<?xml version="1.0" encoding="utf-8"?>
<svg viewBox="0 0 500 500" xmlns="http://www.w3.org/2000/svg">
  <defs>
    <clipPath id="clippath0" transform="">
      <path d="M 0 718.5 L 0 123.5 L 595 123.5 L 595 718.5 Z" style="fill: none; clip-rule: nonzero;"/>
    </clipPath>
    <clipPath id="clippath1" transform="" style="clip-path: url(#clippath0);">
      <path d="M 0 0 L 595 0 L 595 842 L 0 842 Z" style="fill: none; clip-rule: nonzero;"/>
    </clipPath>
  </defs>
  <g transform="matrix(0, -0.815512, -0.815512, 0, 592.721863, 490.63916)" style="">
    <g transform="">
      <path d="M 0 718.5 L 0 123.5 L 595 123.5 L 595 718.5 Z" style="fill: none;"/>
    </g>
    <g style="clip-path: url(#clippath0);">
      <g transform="">
        <path d="M 0 0 L 595 0 L 595 842 L 0 842 Z" style="fill: none;"/>
      </g>
    </g>
    <g style="clip-path: url(#clippath1);">
      <g transform="">
        <path d="M 315.2424 718.1724 C 308.9704 718.4573 285.0628 718.4573 280.2545 718.1724 C 260.3418 716.9927 232.2977 711.7145 212.5337 705.8293 C 175.0803 694.6778 139.8535 675.9591 110.2285 651.8284 C 60.23267 611.1041 23.4661 553.9271 8.635412 491.0122 C 4.983125 475.5192 1.485126 453.7946 0.3275665 438.2455 C 0.04272606 434.4199 0.04272606 407.1647 0.3275665 403.2576 C 2.508969 373.3335 9.392613 341.9853 19.79166 314.6485 C 21.51257 310.1251 31.9496 286.9019 34.03368 282.96 C 36.34643 278.5845 48.88495 257.8513 52.19226 252.9331 C 55.17517 248.4967 58.18736 244.1924 61.44957 239.8779 C 71.62471 226.42 84.49554 212.4944 96.46121 201.5431 C 132.8488 168.2413 177.7222 143.9452 226.0636 131.9946 C 243.3637 127.718 263.0098 124.5405 280.2545 123.3307 C 284.3143 123.0458 311.3456 123.0458 315.2424 123.3307 C 377.5607 127.8865 437.4532 150.7268 485.2684 189.6748 C 535.4343 230.5367 571.704 287.0269 586.8615 350.4909 C 590.8231 367.0781 594.0015 386.9497 595.1693 403.2576 C 595.4542 407.2343 595.4542 434.3614 595.1693 438.2455 C 591.2488 491.7124 574.4179 541.4171 545.5596 585.3656 C 516.5383 629.5617 475.928 664.6707 429.3685 687.5521 C 425.4274 689.489 395.6758 701.7838 391.7458 703.0996 C 374.2969 708.942 338.3295 717.1241 315.2424 718.1724" style="fill-rule: evenodd; fill-opacity: 1; fill: rgb(255, 255, 255);"/>
        <path d="M 399.5789 625.1246 C 399.5789 625.1246 399.2632 625.2084 399.1042 625.1246 C 398.7726 624.9505 399.1168 624.0525 398.9831 623.8214 C 398.9364 623.7399 398.8296 623.7415 398.7244 623.7004 C 398.3462 623.5532 397.0668 620.1905 396.3357 618.3928 C 396.0453 617.6799 396.0532 617.5249 396.41 616.8436 C 410.3198 590.3345 414.8384 583.0544 422.1288 556.1694 C 425.4005 544.1041 426.9568 530.423 420.9411 518.6243 C 419.5035 515.8044 416.5942 511.0143 414.1928 509.5442 C 413.0748 508.8598 411.6949 508.469 410.4978 507.7466 C 409.2856 507.0155 408.2602 505.945 407.056 505.2542 C 401.6748 502.1677 392.5821 503.6844 387.7105 505.2542 C 385.4817 505.9726 382.6 507.2141 381.3016 508.1026 C 379.0079 509.6724 376.9768 512.0334 374.8927 513.4434 C 373.9512 514.0803 372.9993 514.5234 372.0443 515.1049 C 370.4611 516.0694 349.8062 539.1304 347.8329 540.5032 C 345.5771 542.073 342.8308 542.4908 339.9998 540.7406 C 336.1497 538.3598 331.2069 527.4821 329.9117 524.0062 C 326.1391 513.8825 321.1505 496.5144 319.3488 492.6738 C 316.8059 487.2531 312.913 482.4551 306.2937 479.7373 C 302.692 478.2585 297.2777 478.6185 294.4253 480.9241 C 293.5376 481.6417 292.8721 482.596 292.0516 483.2978 C 291.2248 484.0043 290.2413 484.4561 289.3187 485.0677 C 288.5188 485.5994 283.0309 492.3367 281.9635 494.098 C 272.3328 509.9913 265.1034 525.5562 260.2445 542.9956 C 259.0972 547.1147 254.9615 566.9997 254.243 571.8554 C 253.9012 574.1619 253.3394 597.0686 253.5982 598.1454 C 254.4385 601.6442 255.9299 605.2 258.8203 607.6781 C 259.7721 608.4938 261.2944 609.2859 261.7873 609.221 C 262.6023 609.1142 263.274 608.2446 264.1183 608.0341 C 265.0559 607.7999 266.2079 608.3791 267.2088 608.0341 C 268.3434 607.6425 269.5034 605.6763 270.6886 604.8297 C 271.123 604.5195 271.5787 604.3534 272.1128 603.8802 C 273.302 602.8263 274.8789 600.2469 274.8789 600.2469 C 274.8789 600.2469 270.6934 595.6499 269.1457 593.08 C 268.4732 591.9636 268.2841 591.1629 268.1962 590.2316 C 268.0404 588.5732 268.8609 578.061 269.5516 572.8832 C 271.6523 557.1181 273.5386 548.1757 279.5899 532.3141 C 281.8749 526.3245 284.5524 520.145 287.2173 514.7117 C 288.3922 512.3151 294.5472 502.5617 295.7308 501.219 C 296.7333 500.082 301.2013 496.6212 301.8596 496.4716 C 302.787 496.2612 303.6059 496.569 304.276 497.4211 C 304.9691 498.3009 308.5605 506.5708 309.3794 509.1708 C 311.8575 517.0395 313.4424 524.0307 315.907 530.4151 C 316.7062 532.4865 324.6144 547.0633 325.7578 548.5737 C 328.6236 552.3597 330.892 554.0854 335.7272 556.1694 C 342.9779 559.2956 349.8442 559.2204 356.1407 555.1013 C 358.3633 553.6478 369.8574 542.8998 372.163 539.4351 C 372.8197 538.4484 373.3095 537.4586 373.9433 536.468 C 374.6807 535.3152 381.0983 528.8137 382.9632 527.3293 C 389.5272 522.1057 397.6024 516.469 404.5636 522.4633 C 408.6344 525.9692 409.3378 535.1316 408.8362 540.6314 C 407.7419 552.6248 401.0442 572.4861 397.2052 580.7369 C 391.1445 593.762 386.3037 601.486 377.3629 611.434 C 376.8486 612.0061 376.707 612.0828 375.9482 612.207 C 366.7226 613.7127 350.0309 616.3515 348.3076 616.9354 C 345.7543 617.8002 342.8458 618.9965 340.9492 619.3091 C 338.8177 619.6604 335.9091 619.5219 333.8282 620.2585 C 332.5512 620.7103 331.2575 621.5451 330.1918 621.8014 C 329.4164 621.9874 328.7612 621.8679 328.0507 621.8014 C 327.326 621.7334 286.6761 634.7007 283.0317 636.1621 C 281.3401 636.8402 258.6185 642.0283 257.5622 641.9776 C 250.9405 641.658 240.5841 640.4078 239.0381 640.7908 C 234.5313 641.9064 231.6599 645.9559 234.4901 650.9976 C 235.9871 653.6632 242.3763 655.2892 245.841 655.9823 C 247.4314 656.3003 256.3374 656.4871 257.1634 656.2196 C 257.7189 656.04 258.1944 655.8082 258.8155 655.7449 C 259.7855 655.646 261.1116 655.9562 262.1481 655.7449 C 263.2614 655.5178 263.7092 655.0067 264.7544 655.2472 C 265.1041 655.3279 265.226 655.3145 265.9682 655.1127 C 280.2197 651.2381 303.5283 645.0025 308.6673 643.2831 C 313.8554 641.5472 318.8163 639.6554 323.6214 638.0611 C 329.323 636.1692 334.8046 634.6952 341.424 633.0764 C 344.5976 632.3002 364.3513 629.2627 365.3506 629.3972 C 365.8562 629.4652 366.3119 629.5617 366.8222 629.7532 C 368.8209 630.5009 371.659 632.6926 374.418 633.7885 C 375.824 634.3471 379.2255 635.0251 380.8744 634.8566 C 382.2851 634.7126 383.7972 633.9166 385.4888 633.6698 C 388.1979 633.2742 391.3676 634.2853 393.3314 633.9071 C 395.1045 633.5653 399.3083 629.7524 399.5789 627.3416 C 399.6881 626.3684 399.5789 625.1246 399.5789 625.1246 Z M 382.4885 185.7582 C 382.4885 185.7582 381.5619 185.9307 381.0247 185.8294 C 380.7177 185.7717 380.5389 185.6245 380.3925 185.4821 C 380.1963 185.2914 380.0586 185.1086 379.883 185.0477 C 379.462 184.9005 374.539 190.0609 374.0849 190.8379 C 372.5365 193.49 373.3008 196.7815 374.2131 199.6829 C 374.6474 201.0636 376.6184 204.6487 377.0543 204.8512 C 377.3139 204.9715 377.5924 205.0229 377.8709 205.1448 C 378.4113 205.3813 378.9557 205.8814 379.6195 206.2493 C 380.4408 206.7043 384.0187 207.2676 385.6913 207.467 C 386.6725 207.5841 386.7405 207.3855 386.5949 206.0381 C 386.5308 205.4446 386.5918 205.3267 387.2018 204.8591 L 389.5145 203.086 L 390.0842 203.086 L 390.0842 200.2376 L 389.6095 200.2376 L 389.6095 199.5255 L 390.5589 199.7629 C 390.5589 199.7629 390.8288 196.3028 390.3216 193.9853 C 390.1871 193.3714 386.716 187.9309 384.8621 187.0637 C 384.4792 186.8849 384.0393 186.7892 383.6088 186.7567 C 383.0281 186.7124 382.9632 186.6839 382.9632 186.4703 L 382.9632 185.9956 L 382.4885 185.9956 L 382.4885 185.7582 Z M 304.3947 326.2795 C 304.3947 326.2795 304.3718 326.4298 304.3947 326.5168 C 304.4287 326.6474 304.6289 326.6245 304.7484 326.6379 C 304.8971 326.6545 304.9422 326.8808 304.8695 327.0865 C 304.7452 327.437 298.3514 329.8305 296.5616 330.196 C 294.7853 330.5592 270.9901 335.3263 267.2468 338.3852 C 263.8888 341.1292 263.2013 346.2064 266.1794 350.1634 C 266.685 350.8351 269.6711 354.2563 271.2132 354.8181 C 271.6642 354.9827 271.7963 354.9764 272.5337 354.758 C 290.2548 349.509 307.1474 345.0085 325.7578 339.216 C 328.982 338.2127 342.9075 335.138 344.035 335.1807 C 344.9592 335.2156 345.8232 335.3327 346.8359 335.2994 C 347.806 335.2678 353.0747 333.4622 353.5297 333.0049 C 355.4199 331.1052 356.0149 326.8776 355.4286 323.9058 C 355.1082 322.2806 354.1785 319.2716 352.5802 318.3277 C 350.8324 317.2959 349.4161 317.6243 349.9692 315.7546 C 350.3632 314.4206 355.5584 308.3757 358.3957 304.4417 C 361.2133 300.5354 365.7668 289.3238 366.1101 284.313 C 366.2668 282.0256 365.921 277.817 365.2794 275.9577 C 364.3932 273.3902 360.9712 269.1658 358.0397 268.2432 C 354.0187 266.9781 349.3512 268.6104 345.9339 270.6169 C 344.0635 271.7151 337.998 276.449 336.2019 278.2127 C 329.5382 284.7537 311.3852 305.93 309.4831 307.2893 C 306.573 309.3695 304.0379 309.0545 300.3595 307.4088 C 298.8206 306.7204 290.7311 301.2998 288.8472 299.6944 C 285.0097 296.4242 279.6998 291.6848 277.3349 290.081 C 275.1108 288.5729 272.2987 287.1218 271.282 284.9776 C 270.6364 283.6159 270.5573 281.838 269.9765 280.4676 C 268.4344 276.828 263.6309 274.9386 260.4818 277.0258 C 258.5955 278.276 256.3904 281.1964 256.0367 282.4892 C 255.8737 283.0866 256.8098 287.4723 257.2774 288.3008 C 261.1029 295.0705 279.9277 312.3136 282.8758 314.859 C 285.4006 317.0396 288.2387 319.274 290.724 320.7971 C 292.3982 321.8233 299.7748 326.304 302.6659 326.3483 C 303.4603 326.3602 304.3947 326.2795 304.3947 326.2795 Z M 275.7493 248.4231 C 280.5741 248.6035 289.5719 248.5378 295.0614 248.1857 C 296.5007 248.0932 341.3994 236.008 342.0459 235.5388 C 342.921 234.9043 346.7426 230.1443 346.8834 229.5144 C 347.2648 227.8046 346.832 225.969 345.3405 223.9743 C 344.7914 223.2392 340.4286 220.1701 339.6057 219.9391 C 338.7077 219.6874 334.7199 219.8346 333.1873 220.1764 C 325.863 221.8095 305.0728 228.8688 297.7484 230.5019 C 288.6146 232.5385 281.1961 232.3565 271.0209 232.2821 C 270.1173 232.2758 269.4551 232.2742 268.6979 232.6967 C 268.0246 233.0734 264.8565 236.9646 264.3984 237.9789 C 263.6388 239.6603 263.9862 242.3647 264.8731 243.9131 C 265.2458 244.5635 267.3576 246.2069 268.0776 246.4055 C 269.3989 246.771 270.9276 246.6246 272.8249 247.3549 C 273.8448 247.7474 274.9715 248.3938 275.7493 248.4231 Z M 323.6214 319.6332 C 323.2448 319.8864 322.3816 319.4148 322.3555 319.3958 C 322.1126 319.2218 322.0089 319.0327 321.9599 318.8024 C 321.8792 318.4226 332.8099 302.9107 334.4216 301.1186 C 335.6116 299.7949 345.7077 288.5452 346.6461 290.9118 C 347.3851 292.7743 342.9423 301.0893 342.0174 302.5428 C 341.132 303.9337 333.4168 312.3753 331.9293 313.5803 C 329.1062 315.8686 325.7554 318.2011 323.6214 319.6332 Z M 297.7484 455.328 L 297.7484 455.1698 C 297.7484 455.1698 296.1976 455.2513 295.0891 455.4475 C 294.0416 455.6326 292.8998 456.1889 292.145 456.8559 C 289.6068 459.0982 284.6339 464.45 282.7943 465.4952 C 281.9453 465.9779 281.0837 466.3197 280.302 466.8008 C 279.7275 467.1544 279.1966 467.5825 278.6404 467.9876 C 277.8326 468.5763 272.3399 470.5243 271.7702 470.4246 C 271.2021 470.3241 268.2421 467.8792 267.9589 467.2755 C 266.0781 463.2703 265.7482 454.7338 266.1114 451.5428 C 266.3464 449.4722 268.9796 439.176 269.8578 436.8925 C 271.5669 432.4474 273.7158 428.1178 275.792 423.8373 C 277.3246 420.678 280.1833 415.8309 281.2514 414.58 C 283.2793 412.2056 285.8896 410.2639 288.0164 407.9337 C 289.3449 406.4779 290.4842 404.8717 291.8143 403.4238 C 294.3604 400.6521 303.5022 393.8468 307.4805 392.6236 C 310.5884 391.6678 315.9988 391.3426 318.3994 392.3862 C 319.7088 392.9559 327.7809 399.1725 329.4369 401.7622 C 331.3952 404.8234 332.1018 410.2275 332.1667 413.1558 C 332.2015 414.7319 328.2185 439.4695 327.6567 441.1651 C 326.6265 444.2762 324.6223 449.704 322.5533 452.5587 C 320.4882 455.4087 317.4523 459.6758 317.4491 460.1925 C 317.4452 460.8223 318.3013 463.3154 319.2681 463.715 C 319.7065 463.8962 321.304 463.4839 321.7225 463.082 C 322.1411 462.6801 322.3151 462.1499 322.5533 461.5787 C 322.9687 460.581 326.026 456.6494 326.7072 456.2379 C 328.3838 455.2244 330.6151 454.8216 331.2607 453.9616 C 331.7434 453.3183 331.8367 452.3522 332.1667 451.3719 C 332.5686 450.1779 334.6685 447.1017 336.1758 444.8728 C 337.2455 443.2903 341.2673 434.8551 342.0174 432.6199 C 342.9961 429.7035 344.2186 424.5043 344.5097 422.0238 C 344.7273 420.1676 344.3863 410.7893 344.035 408.9592 C 342.6338 401.6649 337.3895 391.4549 331.4546 385.9773 C 330.4458 385.046 324.3264 381.408 322.672 380.7552 C 320.7928 380.0138 310.9342 377.6623 309.237 377.5508 C 303.6296 377.1813 297.2468 379.3603 292.289 382.4168 C 290.9115 383.2666 280.3036 392.7478 278.8778 394.4038 C 277.2336 396.3146 265.2569 413.9162 263.2115 417.4284 C 256.8825 428.2967 254.2367 434.1311 251.1058 446.6246 C 249.0494 454.8295 248.8841 460.6569 251.1058 469.1744 C 252.3829 474.0705 254.1718 477.2402 258.1082 480.9241 C 261.489 484.0882 264.4166 485.7909 268.1005 486.3329 C 269.4986 486.5386 277.7408 486.0686 279.7086 485.6714 C 281.5339 485.3027 288.954 482.5698 290.2049 481.8055 C 292.9884 480.1052 298.8846 474.9092 300.2432 470.601 C 300.4402 469.9759 300.5454 469.354 300.8342 468.7472 C 301.6547 467.0231 303.958 465.4201 304.7508 463.715 C 305.4613 462.1871 305.1369 459.8253 304.276 458.7303 C 303.7831 458.1028 301.3359 456.6834 299.5841 455.9222 C 299.1869 455.7489 298.8 455.5788 298.379 455.51 C 297.8117 455.4174 297.7484 455.3992 297.7484 455.328 Z M 298.9353 411.0195 L 298.9353 410.5448 L 298.4605 410.5448 L 298.4605 411.0195 Z" style="fill-rule: evenodd; fill-opacity: 1;"/>
      </g>
    </g>
  </g>
</svg>